PathFileType	4	(x/y/z)	S01_PSF_T11.trc
DataRate	CameraRate	NumFrames	NumMarkers	Units	OrigDataRate	OrigDataStartFrame	OrigNumFrames
240	240	10	51	mm	240	273	436
Frame#	Time	Sternum			R.Acromium			L.Acromium			Top.Head			R.ASIS			L.ASIS			R.PSIS			L.PSIS			R.Great.Tro			L.Great.Tro			R.Iliac.Crest			L.Iliac.Crest			V.Sacral			R.Thigh.Upper.Post			R.Thigh.Lower.Ant			R.Thigh.Lower.Post			R.Thigh.Upper.Ant			R.Knee.Lat			R.Knee.Med			R.Shank.Upper.Post			R.Shank.Lower.Ant			R.Shank.Lower.Post			R.Shank.Upper.Ant			R.Ankle.Lat			R.Ankle.Med			R.Heel.Upper			R.Heel.Med			R.Heel.Lat			R.Toe.Lat			R.Toe.Med			R.Toe.Tip			L.Thigh.Upper.Post			L.Thigh.Lower.Ant			L.Thigh.Lower.Post			L.Thigh.Upper.Ant			L.Knee.Lat			L.Knee.Med			L.Shank.Upper.Post			L.Shank.Lower.Ant			L.Shank.Lower.Post			L.Shank.Upper.Ant			L.Ankle.Lat			L.Ankle.Med			L.Heel.Upper			L.Heel.Med			L.Heel.Lat			L.Toe.Lat			L.Toe.Med			L.Toe.Tip			Cervical.Spine			Back			
		X1	Y1	Z1	X2	Y2	Z2	X3	Y3	Z3	X4	Y4	Z4	X5	Y5	Z5	X6	Y6	Z6	X7	Y7	Z7	X8	Y8	Z8	X9	Y9	Z9	X10	Y10	Z10	X11	Y11	Z11	X12	Y12	Z12	X13	Y13	Z13	X14	Y14	Z14	X15	Y15	Z15	X16	Y16	Z16	X17	Y17	Z17	X18	Y18	Z18	X19	Y19	Z19	X20	Y20	Z20	X21	Y21	Z21	X22	Y22	Z22	X23	Y23	Z23	X24	Y24	Z24	X25	Y25	Z25	X26	Y26	Z26	X27	Y27	Z27	X28	Y28	Z28	X29	Y29	Z29	X30	Y30	Z30	X31	Y31	Z31	X32	Y32	Z32	X33	Y33	Z33	X34	Y34	Z34	X35	Y35	Z35	X36	Y36	Z36	X37	Y37	Z37	X38	Y38	Z38	X39	Y39	Z39	X40	Y40	Z40	X41	Y41	Z41	X42	Y42	Z42	X43	Y43	Z43	X44	Y44	Z44	X45	Y45	Z45	X46	Y46	Z46	X47	Y47	Z47	X48	Y48	Z48	X49	Y49	Z49	X50	Y50	Z50	X51	Y51	Z51	

273	1.1333	164.47	1240.8	299.75	72.954	1496.8	479.04	37.56	1511.2	152.32	142.39	1809.1	308.83	107.32	995.35	469.48	117.71	1003.4	203.18	-126.9	1035.3	365.24	-126.03	1029.3	262.01	20.064	943.82	543.83	23.889	947.42	120.91	24.182	1094.9	529.71	6.8845	1077.7	123.52	-138.28	994.94	311.73	-42.013	645.27	525.53	20.091	564.72	512.34	-48.411	556.92	512.17	30.647	654.55	524.98	-50.168	489.86	512.32	-16.124	483.29	368.06	-198.06	408.74	514.62	-206.31	305.16	478.89	-247.73	360.53	500.07	-158.81	357.7	499.53	-383.04	202.34	455.63	-343.31	194.86	367.65	-445.87	233.22	393.97	-450.05	208.17	357.81	-463.01	199.13	420.97	-346.66	54.394	471.51	-306.56	60.772	351.55	-248.05	39.211	405.53	102.07	668.84	155	206.8	635.26	159.5	144.22	590.52	178.12	155.26	712.44	135.62	226.05	532.82	174.75	238.72	549.82	314.55	200.16	389.37	157.05	271.38	309.62	188.58	211.48	312.48	163.13	261.32	385.5	179.03	221.55	102.64	201.2	245.57	114.95	299.8	150.49	71.683	248.99	162.19	47.908	283.38	160.4	45.234	220.63	370.55	41.905	188.12	396.02	53.141	309.19	459.29	63.985	257.58	-25.759	1568.8	328.36	-133.04	1260.5	350.16
274	1.1375	170.33	1241.5	299.47	78.313	1497.9	478.11	43.602	1511.6	151.34	147.73	1809.8	307.1	112.9	995.9	469.07	123.9	1004.2	202.92	-121.09	1035.6	364.77	-120.03	1029.9	261.51	25.927	943.95	543.42	30.16	948.29	120.51	29.9	1095.7	529.03	13.204	1078.5	123.18	-132.31	995.43	311.14	-33.082	644.68	526.21	29.903	564.73	513.71	-38.526	556.21	513.14	39.488	654.7	525.97	-39.37	489.38	513.55	-4.8337	482.42	369.35	-187.8	410.18	515.73	-197.58	306.8	479.88	-238.18	362.76	501.04	-149.3	358.57	500.6	-375.67	207.06	456.37	-336.17	198.65	368.46	-437.34	240.13	394.81	-442.36	215.4	358.48	-455.61	206.52	421.63	-344.17	57.464	471.67	-303.6	63.128	352.07	-246.32	38.866	406.14	107.4	669.31	154.65	211.98	635.36	159.26	149.24	590.84	177.86	160.79	712.71	135.35	230.7	532.73	174.68	243.55	549.83	314.42	203.53	389.53	157.03	274.02	309.13	188.6	214.13	312.56	163.14	264.64	385.09	179	222	102.73	201.36	246.06	114.8	299.93	150.79	71.907	249	162.33	48.045	283.39	160.59	45.437	220.63	370.83	41.495	188.15	396.29	52.2	309.33	459.64	62.782	257.79	-20.205	1569.4	327.1	-127.23	1261.1	349.29
275	1.1417	176.15	1242.3	299.23	83.645	1499	477.19	49.638	1512.1	150.38	153.05	1810.5	305.41	118.41	996.46	468.69	130.04	1005.1	202.68	-115.35	1036	364.28	-114.07	1030.6	261	31.716	944.12	543.02	36.399	949.19	120.11	35.484	1096.5	528.35	19.465	1079.2	122.83	-126.39	995.97	310.52	-24.084	644.15	526.89	39.79	564.81	515.05	-28.558	555.57	514.1	48.387	654.92	526.96	-28.452	488.98	514.75	6.5233	481.66	370.59	-177.34	411.63	516.82	-188.62	308.49	480.82	-228.42	365	502	-139.59	359.48	501.63	-367.99	211.82	457.06	-328.76	202.45	369.22	-428.48	247	395.56	-434.32	222.57	359.1	-447.85	213.92	422.24	-341.35	60.773	471.89	-300.3	65.584	352.65	-244.36	38.607	406.85	112.59	669.79	154.32	217.01	635.43	159.07	154.08	591.17	177.64	166.2	712.97	135.1	235.16	532.62	174.63	248.14	549.78	314.32	206.72	389.67	157.06	276.5	308.65	188.63	216.62	312.61	163.18	267.78	384.69	178.97	222.39	102.82	201.53	246.48	114.67	300.07	151.04	72.099	249.01	162.45	48.157	283.41	160.76	45.617	220.63	371.07	41.176	188.19	396.51	51.382	309.45	459.92	61.745	257.99	-14.666	1570.1	325.86	-121.46	1261.7	348.42
276	1.1458	181.94	1243	299.01	88.949	1500.1	476.31	55.667	1512.5	149.46	158.36	1811.2	303.75	123.85	997.06	468.34	136.13	1005.9	202.45	-109.67	1036.4	363.77	-108.15	1031.3	260.47	37.426	944.35	542.65	42.609	950.12	119.72	40.928	1097.4	527.68	25.673	1080	122.48	-120.54	996.55	309.89	-15.027	643.68	527.57	49.739	564.98	516.38	-18.519	555	515.03	57.336	655.22	527.95	-17.43	488.67	515.93	17.925	481.05	371.78	-166.71	413.09	517.91	-179.43	310.23	481.69	-218.45	367.25	502.93	-129.69	360.44	502.61	-360.03	216.62	457.69	-321.07	206.25	369.91	-419.32	253.79	396.22	-425.93	229.64	359.64	-439.74	221.28	422.77	-338.15	64.31	472.17	-296.63	68.119	353.31	-242.11	38.451	407.68	117.64	670.28	154.02	221.9	635.49	158.9	158.77	591.49	177.44	171.5	713.24	134.88	239.45	532.5	174.6	252.47	549.69	314.26	209.73	389.8	157.11	278.84	308.18	188.66	218.96	312.66	163.24	270.76	384.28	178.96	222.72	102.92	201.69	246.85	114.56	300.22	151.26	72.264	249.04	162.55	48.249	283.43	160.92	45.776	220.64	371.27	40.933	188.23	396.7	50.676	309.58	460.16	60.857	258.17	-9.1419	1570.8	324.65	-115.73	1262.4	347.55
277	1.15	187.7	1243.8	298.83	94.225	1501.3	475.45	61.688	1513	148.57	163.66	1812	302.13	129.23	997.68	468.02	142.17	1006.8	202.24	-104.06	1036.9	363.25	-102.28	1032.1	259.92	43.053	944.63	542.3	48.788	951.07	119.34	46.231	1098.2	527.04	31.831	1080.8	122.11	-114.74	997.17	309.23	-5.9197	643.28	528.23	59.738	565.25	517.67	-8.4196	554.52	515.94	66.326	655.6	528.93	-6.3262	488.47	517.07	29.352	480.58	372.9	-155.93	414.58	518.97	-170.05	312.01	482.51	-208.29	369.51	503.83	-119.61	361.45	503.54	-351.78	221.43	458.26	-313.1	210.02	370.53	-409.86	260.45	396.75	-417.21	236.56	360.1	-431.29	228.56	423.23	-334.56	68.054	472.54	-292.56	70.715	354.06	-239.53	38.422	408.63	122.55	670.78	153.75	226.63	635.54	158.77	163.29	591.83	177.26	176.68	713.5	134.68	243.57	532.37	174.6	256.59	549.56	314.24	212.59	389.9	157.19	281.04	307.72	188.71	221.17	312.7	163.33	273.57	383.87	178.96	223.02	103.02	201.86	247.17	114.46	300.37	151.45	72.405	249.06	162.64	48.325	283.46	161.05	45.915	220.66	371.44	40.754	188.26	396.86	50.069	309.7	460.36	60.1	258.34	-3.6325	1571.5	323.46	-110.05	1263.1	346.69
278	1.1542	193.42	1244.6	298.68	99.473	1502.4	474.63	67.699	1513.6	147.7	168.96	1812.8	300.56	134.54	998.33	467.75	148.17	1007.6	202.06	-98.502	1037.4	362.7	-96.44	1032.9	259.35	48.594	944.96	541.97	54.937	952.05	118.97	51.393	1099.1	526.43	37.942	1081.6	121.73	-109	997.84	308.55	3.2314	642.98	528.87	69.777	565.63	518.93	1.7288	554.14	516.83	75.35	656.07	529.9	4.8414	488.38	518.19	40.785	480.27	373.95	-145.02	416.08	520	-160.47	313.84	483.25	-197.97	371.76	504.7	-109.38	362.52	504.41	-343.26	226.24	458.76	-304.86	213.75	371.09	-400.13	266.95	397.14	-408.18	243.29	360.46	-422.52	235.72	423.58	-330.54	71.984	472.98	-288.07	73.351	354.9	-236.59	38.537	409.73	127.33	671.3	153.49	231.23	635.59	158.68	167.67	592.18	177.1	181.75	713.77	134.51	247.53	532.24	174.62	260.49	549.4	314.24	215.3	389.99	157.3	283.11	307.27	188.76	223.26	312.73	163.43	276.24	383.48	178.98	223.27	103.12	202.03	247.44	114.38	300.52	151.61	72.526	249.1	162.72	48.388	283.49	161.17	46.039	220.68	371.59	40.627	188.3	397	49.55	309.81	460.52	59.458	258.49	1.8629	1572.2	322.31	-104.4	1263.8	345.83
279	1.1583	199.11	1245.5	298.57	104.69	1503.6	473.84	73.699	1514.2	146.87	174.25	1813.7	299.03	139.79	999.01	467.51	154.12	1008.5	201.91	-93.007	1037.9	362.12	-90.643	1033.8	258.76	54.048	945.36	541.67	61.054	953.06	118.62	56.419	1099.9	525.84	44.013	1082.4	121.33	-103.31	998.55	307.84	12.418	642.76	529.5	79.845	566.12	520.15	11.916	553.87	517.68	84.4	656.64	530.85	16.053	488.42	519.26	52.209	480.14	374.94	-134	417.6	520.99	-150.71	315.7	483.92	-187.51	374	505.52	-99.004	363.65	505.21	-334.49	231.02	459.18	-296.35	217.42	371.58	-390.16	273.24	397.38	-398.85	249.77	360.71	-413.45	242.7	423.81	-326.06	76.073	473.51	-283.13	76.006	355.83	-233.24	38.818	410.98	131.99	671.83	153.26	235.7	635.63	158.61	171.9	592.54	176.95	186.71	714.04	134.36	251.34	532.1	174.65	264.2	549.22	314.28	217.86	390.07	157.41	285.07	306.84	188.83	225.23	312.76	163.54	278.77	383.08	179	223.49	103.23	202.19	247.68	114.31	300.67	151.75	72.631	249.13	162.8	48.442	283.51	161.28	46.147	220.7	371.71	40.541	188.33	397.12	49.109	309.91	460.65	58.917	258.63	7.3446	1573	321.18	-98.805	1264.6	344.97
280	1.1625	204.77	1246.3	298.49	109.89	1504.7	473.08	79.686	1514.8	146.07	179.53	1814.5	297.55	144.98	999.72	467.33	160.03	1009.4	201.8	-87.567	1038.5	361.53	-84.884	1034.7	258.15	59.413	945.82	541.4	67.137	954.08	118.28	61.313	1100.7	525.3	50.046	1083.2	120.92	-97.675	999.31	307.11	21.634	642.66	530.11	89.932	566.74	521.34	22.131	553.72	518.5	93.468	657.31	531.77	27.289	488.6	520.31	63.609	480.18	375.86	-122.89	419.14	521.94	-140.79	317.6	484.52	-176.92	376.24	506.3	-88.509	364.85	505.95	-325.48	235.75	459.51	-287.58	221	372.01	-379.97	279.3	397.46	-389.24	255.97	360.82	-404.11	249.46	423.92	-321.1	80.289	474.14	-277.72	78.657	356.87	-229.42	39.28	412.39	136.52	672.38	153.04	240.03	635.66	158.58	175.99	592.9	176.82	191.57	714.32	134.24	254.99	531.97	174.7	267.74	549.02	314.33	220.3	390.14	157.53	286.92	306.42	188.89	227.09	312.78	163.66	281.17	382.7	179.02	223.68	103.33	202.35	247.88	114.26	300.82	151.87	72.724	249.17	162.86	48.489	283.53	161.37	46.244	220.72	371.82	40.489	188.37	397.22	48.736	310	460.76	58.461	258.76	12.813	1573.8	320.08	-93.25	1265.4	344.12
281	1.1667	210.39	1247.2	298.45	115.05	1505.9	472.36	85.661	1515.4	145.3	184.81	1815.4	296.13	150.11	1000.5	467.19	165.9	1010.2	201.71	-82.179	1039.1	360.92	-79.164	1035.6	257.52	64.693	946.35	541.15	73.182	955.12	117.97	66.085	1101.5	524.8	56.046	1084	120.51	-92.095	1000.1	306.36	30.87	642.67	530.69	100.03	567.48	522.48	32.366	553.7	519.29	102.55	658.1	532.67	38.533	488.93	521.32	74.977	480.4	376.71	-111.72	420.72	522.83	-130.72	319.53	485.05	-166.23	378.47	507.02	-77.911	366.11	506.63	-316.25	240.41	459.77	-278.54	224.49	372.36	-369.58	285.08	397.36	-379.38	261.84	360.81	-394.51	255.96	423.88	-315.63	84.6	474.87	-271.8	81.285	358.03	-225.08	39.939	413.97	140.94	672.95	152.83	244.24	635.69	158.56	179.94	593.28	176.69	196.32	714.6	134.13	258.5	531.84	174.76	271.13	548.8	314.39	222.63	390.2	157.66	288.68	306.02	188.96	228.87	312.8	163.78	283.45	382.33	179.05	223.85	103.44	202.5	248.06	114.22	300.96	151.98	72.807	249.2	162.91	48.532	283.56	161.46	46.331	220.75	371.9	40.461	188.4	397.3	48.421	310.09	460.85	58.079	258.87	18.268	1574.6	319.01	-87.739	1266.3	343.28
282	1.1708	215.97	1248.1	298.44	120.19	1507.1	471.68	91.62	1516.1	144.56	190.09	1816.3	294.76	155.19	1001.3	467.11	171.72	1011.1	201.66	-76.838	1039.8	360.29	-73.482	1036.6	256.88	69.89	946.96	540.92	79.187	956.16	117.68	70.745	1102.3	524.34	62.017	1084.9	120.09	-86.566	1001	305.6	40.12	642.8	531.25	110.13	568.35	523.59	42.61	553.81	520.04	111.63	659	533.53	49.767	489.41	522.3	86.302	480.79	377.5	-100.52	422.33	523.67	-120.53	321.49	485.51	-155.45	380.7	507.68	-67.228	367.44	507.25	-306.82	244.97	459.93	-269.25	227.85	372.64	-359.02	290.56	397.09	-369.29	267.35	360.65	-384.68	262.15	423.7	-309.64	88.97	475.71	-265.37	83.869	359.29	-220.19	40.804	415.73	145.24	673.53	152.63	248.33	635.72	158.57	183.77	593.66	176.57	200.97	714.89	134.04	261.87	531.71	174.83	274.39	548.58	314.47	224.84	390.26	157.78	290.34	305.64	189.03	230.56	312.82	163.9	285.62	381.97	179.09	224	103.55	202.64	248.22	114.19	301.09	152.07	72.885	249.23	162.96	48.574	283.57	161.53	46.409	220.77	371.97	40.452	188.43	397.37	48.155	310.17	460.92	57.757	258.96	23.71	1575.5	317.97	-82.27	1267.2	342.43
